<?xml version="1.0" encoding="utf-8"?>
<svg viewBox="69.432 72.4568 307.8835 153.7768" xmlns="http://www.w3.org/2000/svg">
  <g id="SVGRepo_iconCarrier" transform="matrix(-0.3888360261917114, 0, 0, 0.39991703629493713, 333.646815367819, 31.529660734387292)" style="">
    <g>
      <g>
        <path fill="white" d="M401.171,272.939c0-20.4,9-38.7,23.3-51.2h-97.7c14.2,12.5,23.3,30.8,23.3,51.2c0,20.4-9,38.7-23.3,51.2h97.7 C410.171,311.539,401.171,293.339,401.171,272.939z"/>
      </g>
    </g>
    <g>
      <g>
        <path fill="white" d="M290.171,222.439v42c4.7,0,8.5,3.8,8.5,8.5s-3.8,8.5-8.5,8.5v42c24.2-4.1,42.7-25.2,42.7-50.5 S314.37,226.539,290.171,222.439z"/>
      </g>
    </g>
    <g>
      <g>
        <path fill="white" d="M460.871,264.439v-42c-24.2,4.1-42.7,25.1-42.7,50.5c0,25.3,18.5,46.4,42.7,50.5v-42c-4.7,0-8.5-3.8-8.5-8.5 S456.171,264.439,460.871,264.439z"/>
      </g>
    </g>
    <g>
      <g>
        <path fill="white" d="M503.57,170.539h-20.3l-31.8-63.5c-1.5-2.9-4.4-4.7-7.6-4.7h-187.8c-3.2,0-6.2,1.8-7.6,4.7l-40.3,80.6h-20.3 c-4.7,0-8.5,3.8-8.5,8.5h-34.1v-8.5c0-4.7-3.8-8.5-8.5-8.5h-46.3c-18.8-27.1-48.3-42.7-81.9-42.7c-2.6,0-5,1.2-6.6,3.1 c-1.6,2-2.3,4.6-1.8,7.1l8.6,42.9c11.2,55.2,11.2,111.3,0,166.9l-8.6,42.9c-0.5,2.5,0.1,5.1,1.8,7.1c1.6,2,4,3.1,6.6,3.1 c33.5,0,63.1-15.6,81.9-42.7h46.1c4.7,0,8.5-3.8,8.5-8.5v-8.5h34.1c0,4.7,3.8,8.5,8.5,8.5h63l6.2,12.3c1.5,2.9,4.4,4.7,7.6,4.7 h238.9c4.7,0,8.5-3.8,8.5-8.5v-187.8C512.07,174.339,508.27,170.539,503.57,170.539z M76.87,356.739 c-13.7,20.1-33.9,32.3-57.7,35.1l6.4-32.1c11.6-57.8,11.6-116.2,0-173.6l-6.4-32.1c23.9,2.8,44,15,57.7,35.1V356.739z M179.27,332.639h-34.1v-119.5h34.1V332.639z M256.97,175.239l-6.2,12.3h-23.6l34.1-68.3h177.2l25.6,51.2h-23.6l-14.7-29.4 c-1.5-2.9-4.4-4.7-7.6-4.7h-136.5c-3.2,0-6.2,1.8-7.6,4.7L256.97,175.239z M421.47,170.539h-143.1l8.5-17.1h126L421.47,170.539z M469.47,341.139h-187.8c-4.7,0-8.5-3.8-8.5-8.5v-119.5c0-4.7,3.8-8.5,8.5-8.5h187.7c4.7,0,8.5,3.8,8.5,8.5v119.5h0.1 C477.97,337.339,474.171,341.139,469.47,341.139z"/>
      </g>
    </g>
  </g>
  <a href="/">
    <text style="fill: white; font-family: 'Bungee Inline', sans-serif; font-size: 30px; font-weight: 700; letter-spacing: 1px; white-space: pre;" x="69.432" y="224.87" transform="matrix(1, 0, 0, 0.9999999999999999, 0, -7.105427357601002e-15)">CAMERA MANAGER</text>
  </a>
  <!---<text style="fill: white; font-family: 'Bungee Inline', sans-serif; font-size: 30px; font-weight: 700; letter-spacing: 1px; white-space: pre;" x="69.432" y="224.87" transform="matrix(1, 0, 0, 0.9999999999999999, 0, -7.105427357601002e-15)">CAMERA MANAGER</text>-->
</svg>