<svg fill="white" width="100" height="100" viewBox="0 0 1024 1024" xmlns="http://www.w3.org/2000/svg">
                            <path d="M289.573 292.559l-8.665-8.507 52.617-83.589 8.271 8.964-52.223 83.148zM726.581 292.559l-52.223-83.179 8.318-8.917 52.585 83.589c-2.253 2.269-4.317 4.411-6.412 6.522-0.63 0.63-1.323 1.166-2.269 2.001zM700.319 327.453l-48.6-98.555c3.293-2.615 6.223-4.978 9.563-7.656l48.206 97.736c-1.575 1.355-3.088 2.584-4.506 3.907-1.481 1.371-2.899 2.836-4.663 4.569zM315.299 327.059l-8.633-8.334 47.954-97.090 9.437 7.42c-1.638 4.206-11.611 24.671-22.103 45.828l-3.938 7.924-5.829 11.642c-8.822 17.55-16.179 31.902-16.888 32.61zM342.727 367.814l-9.515-9.027 46.378-119.13 10.618 6.302-47.497 121.855zM673.207 367.814l-47.245-121.95 10.461-6.207c0.646 1.575 1.229 2.867 1.733 4.175l30.83 79.666c4.175 10.791 8.35 21.599 12.556 32.374 0.567 1.497 1.197 2.867-0.299 4.254-2.584 2.363-5.073 4.836-8.034 7.688zM370.359 420.714l-10.208-8.633 46.158-157.899c2.284 0.992 4.033 1.78 5.797 2.568l5.419 2.363-47.166 161.632zM645.403 420.746l-47.15-161.727c3.875-1.686 7.389-3.182 11.248-4.836l46.126 157.915c-3.371 2.851-6.522 5.498-10.208 8.649zM613.375 496.773c-2.647-10.886-13.58-65.377-23.977-118.421l-2.143-10.933c-9.941-50.821-18.826-97.421-18.668-99.248 3.545-0.961 7.152-1.922 11.154-3.025 0.394 1.733 0.725 2.993 0.977 4.254 4.269 21.63 8.507 43.244 12.792 64.873 9.783 49.372 19.629 98.728 29.365 148.116 1.623 8.255 2.489 5.703-4.458 10.949-1.575 1.182-3.261 2.221-5.041 3.434zM402.086 497.151c-2.647-1.922-5.183-3.97-7.908-5.671-2.032-1.276-2.284-2.741-1.827-4.915 2.111-10.35 4.096-20.716 6.144-31.082l34.974-177.276c0.819-4.159 1.717-8.302 2.615-12.682l11.5 3.293c-0.425 4.064-9.673 51.593-19.724 102.241l-2.253 11.296c-11.264 56.54-22.78 113.253-23.52 114.797zM443.283 664.487c-3.387-2.127-5.955-3.891-8.68-5.388-2.080-1.15-2.851-2.536-2.584-4.994 1.040-9.862 1.859-19.74 2.804-29.601l4.364-45.166 4.175-44.016 4.348-44.772c1.418-14.793 2.773-29.586 4.191-44.394 1.686-17.518 3.45-35.037 5.12-52.57 1.686-17.644 3.308-35.32 4.994-52.963l6.112-63.471c0.126-1.371 0.457-2.725 0.709-4.191l11.926 1.749-37.478 389.793zM573.486 664.503l-37.699-389.904 12.115-1.623c0.142 0.961 0.268 1.591 0.315 2.221 0.599 5.829 1.166 11.674 1.733 17.518l4.38 45.151c1.182 12.083 2.3 24.151 3.466 36.234l4.38 45.166 4.206 44c1.465 15.313 2.977 30.625 4.458 45.954 1.402 14.525 2.757 29.066 4.175 43.607l4.427 45.56 3.592 36.99c0.614 6.365 1.245 12.713 1.812 19.078 0.126 1.26 0.488 2.615-0.961 3.513-3.308 2.016-6.554 4.112-10.398 6.538zM514.694 881.226h-12.493c-0.032-1.953-0.11-3.907-0.11-5.876v-592.654c0-1.434-0.047-2.867 0.032-4.301 0.032-0.851 0.268-1.701 0.394-2.473h11.8v6.049l0.016 593.426c0 1.953 0.236 3.891 0.362 5.829zM485.912 58.553c0.74-0.158 1.229-0.362 1.733-0.362 6.916 0 13.832-0.142 20.748 0.079 4.128 0.126 8.192 1.103 11.8 3.293 6.097 3.686 8.539 9.232 8.034 16.242-0.488 6.491-3.765 11.138-9.704 13.485-3.151 1.245-6.648 2.016-10.035 2.19-6.632 0.347-13.296 0.142-19.944 0.11-0.866 0-1.733-0.268-2.631-0.41v-34.627zM321.774 59.026c-0.819-21.299-14.966-38.235-35.667-42.693-1.796-0.394-3.545-1.040-5.309-1.575h-9.61c-1.733 0.567-3.466 1.245-5.23 1.638-23.379 5.104-38.518 27.207-34.911 50.994 3.434 22.638 20.701 38.172 43.418 39.101 27.38 1.103 48.363-19.944 47.308-47.45zM431.625 105.547c-4.254-0.158-8.176 0.284-12.272-0.315v-4.836c0-15.25 0.126-30.515-0.095-45.765-0.063-4.096-0.63-8.318-1.796-12.225-2.269-7.593-7.53-12.587-15.234-14.478-3.324-0.819-6.884-1.166-10.287-0.992-12.666 0.693-20.842 8.066-22.953 20.543-0.504 2.883-0.504 5.876-0.504 8.806-0.047 14.714-0.016 29.444-0.016 44.174v4.978c-4.458 0.095-8.381 0.252-12.54-0.11v-44.174c0.016-4.017-0.063-8.034 0.142-12.052 0.803-15.801 10.145-27.837 25.175-32.689 1.229-0.394 2.379-1.071 3.56-1.623h18.385c1.323 0.583 2.584 1.276 3.938 1.733 12.162 4.112 20.165 12.225 23.284 24.828 0.882 3.592 1.386 7.389 1.418 11.091 0.158 16.479 0.079 32.926 0.063 49.403 0 1.15-0.158 2.284-0.268 3.702zM77.152 97.717c-10.665 7.483-22.623 9.72-35.352 8.57-19.33-1.749-36.234-15.155-40.172-36.029-0.315-1.67-1.071-3.261-1.623-4.884v-9.641l1.166-2.599 0.441-1.339c3.434-16.069 12.839-27.191 28.042-32.894 17.14-6.459 33.493-3.513 49.088 5.435 2.3 1.323 2.962 2.93 2.93 5.482-0.126 10.303-0.047 20.606-0.063 30.909 0 1.166-0.126 2.347-0.205 3.734h-35.131c0.268-3.812-0.473-7.341 0.583-11.28h22.701c0-5.908-0.142-11.359 0.047-16.809 0.095-2.552-0.914-3.875-3.088-4.931-7.010-3.434-14.415-4.584-22.134-4.017-13.785 1.024-25.285 10.13-29.208 23.111-4.206 13.958 0.11 28.814 10.98 37.274 9.295 7.215 19.771 8.696 31.035 6.144 5.404-1.229 10.13-3.907 14.95-7.058l6.979 9.326c-0.914 0.725-1.434 1.134-1.953 1.512zM638.172 105.011h-61.896v-88.268c2.552-0.315 11.453-0.473 21.74-0.473h6.995c15.407 0.047 31.366 0.347 32.926 0.803v10.76h-44.52c-1.544 0-3.072 0.173-4.821 0.268-0.063 9.641-0.095 18.794 0 28.325 15.265 0.126 29.98-0.047 44.631 0.095v10.776h-44.426v26.246h49.356v11.5zM164.002 105.279c6.034-0.032 11.973-0.788 17.581-3.151 14.667-6.176 18.684-19.503 15.171-32.217-2.127-7.656-7.483-12.446-14.509-15.549-1.906-0.851-3.907-1.497-6.396-2.442l27.38-35.43c-5.167-0.205-9.61-0.252-14.021 0.047-0.898 0.063-1.89 1.308-2.584 2.206-7.105 9.2-14.241 18.369-21.189 27.68-1.764 2.363-3.576 3.529-6.617 3.371-5.057-0.268-10.13-0.063-15.202-0.095-1.292 0-2.584-0.126-4.317-0.221v-32.847h-11.453c-0.835 2.82-1.197 80.58-0.362 88.52 1.402 0.047 2.568 0.158 3.749 0.158 10.917 0 21.851 0.047 32.768-0.032zM989.289 105.185c4.6-0.142 9.342-0.866 13.706-2.269 10.398-3.308 17.959-9.736 20.433-20.984 0.032-0.205 0.362-0.331 0.567-0.488v-12.855c-0.599-1.89-1.056-3.844-1.812-5.671-3.214-7.719-8.98-12.792-16.573-15.911-5.104-2.111-10.476-3.056-15.974-3.167-4.663-0.095-9.326-0.016-13.989-0.047-1.308 0-2.599-0.11-4.269-0.189v-27.144c-6.27-0.158-12.162-0.11-18.274-0.016v88.441c0.851 0.142 1.733 0.41 2.599 0.41 11.185 0.016 22.402 0.205 33.587-0.11zM758.702 105.311l38.172-88.693h-19.755c-4.962 13.422-14.084 21.22-28.672 21.536-15.281 0.331-25.049-7.389-30.484-21.677h-18.59c0.315 2.883 32.815 80.879 37.022 88.835h22.307zM868.868 105.437c5.624-0.047 11.106-1.087 16.431-2.914 12.635-4.364 20.905-12.981 24.576-25.868 2.631-9.295 2.93-18.747 0.709-28.152-3.891-16.479-14.415-26.388-30.594-30.31-4.096-0.992-8.413-1.449-12.65-1.528-11.453-0.205-22.906-0.079-34.343-0.063-0.788 0-1.575 0.11-2.836 0.221v88.362c1.008 0.126 1.89 0.315 2.757 0.315 11.973 0.016 23.962 0.032 35.95-0.047zM509.007 104.759c5.671 0 11.138-1.103 16.289-3.482 10.476-4.884 15.817-13.312 15.959-24.765 0.142-11.532-4.71-20.385-15.265-25.647-4.584-2.284-9.452-3.702-14.557-3.875-7.058-0.268-14.115-0.221-21.173-0.331-1.418-0.032-2.836-0.158-4.616-0.268v-29.775h-11.579v87.795c0.977 0.142 1.985 0.394 2.993 0.394 10.65 0.016 21.299 0 31.949-0.032zM266.637 93.653c-13.863-4.175-22.733-16.699-23.064-32.248 0.394-2.914 0.583-5.86 1.197-8.712 2.977-13.911 14.588-24.166 28.451-25.253 15.187-1.197 27.806 6.396 32.989 19.976 2.442 6.365 2.946 12.934 1.922 19.692-2.977 19.897-22.339 32.327-41.496 26.545zM850.782 89.116c-0.63 0-1.26-0.252-2.048-0.41v-56.114c7.247 0 14.052-0.52 20.764 0.11 12.383 1.166 19.913 8.208 22.26 20.007 1.087 5.435 1.024 10.949-0.063 16.352-2.536 12.603-10.082 19.235-22.938 19.929-5.986 0.315-11.973 0.126-17.959 0.126zM747.612 89.194l-0.882-0.079-16.148-40.361 0.551-0.599c10.791 5.671 21.63 5.482 33.162-0.362-5.813 14.431-11.028 28.010-16.683 41.401zM972.007 89.399v-29.397c7.751 0 15.297-0.961 22.733 0.945 4.947 1.276 8.602 4.238 10.019 9.342 2.3 8.35-2.095 16.179-10.461 18.274-7.294 1.843-14.73 0.756-22.292 0.835zM140.434 93.542c-0.362 0-0.709-0.268-1.229-0.473v-31.224c0.646-0.252 0.882-0.441 1.119-0.441 8.791-0.016 17.566-0.158 26.34 0.032 4.143 0.095 8.16 1.213 11.674 3.623 5.12 3.497 7.136 8.46 6.585 14.525-0.504 5.561-3.466 9.547-8.539 11.611-2.899 1.182-6.112 2.143-9.216 2.237-8.901 0.315-17.818 0.126-26.734 0.11z" />
</svg>